Patient4_TMGait_0pt5_02_right_33_GRF.mot
version=1
nRows=45
nColumns=19
inDegrees=no
endheader
time	F1x	F1y	F1z	M1x	M1y	M1z	F2x	F2y	F2z	M2x	M2y	M2z	EC1x	EC1y	EC1z	EC2x	EC2y	EC2z
43.16	0.93948	764.86	61.8963	-282.595	-53.7433	722.0272	-6.9224	-2.2762	7.715	-2.5545	-4.7929	-5.8925	-0.0592	0.0182	-0.0073	-0.0462	0.0165	0.9585
43.1728	6.7983	751.6826	60.4826	-278.782	-50.8355	706.0086	-4.713	-0.60933	5.2519	-1.3537	-3.2447	-2.9873	-0.0592	0.0182	-0.0073	-0.0462	0.0165	0.9585
43.1856	12.6056	738.8684	59.0774	-275.0246	-47.7515	689.7102	-2.8491	0.84546	3.1367	-0.31678	-1.8952	-0.47353	-0.0592	0.0182	-0.0073	-0.0462	0.0165	0.9585
43.1984	18.0161	727.881	57.7965	-271.8004	-44.6933	674.6782	-1.437	1.9961	1.5013	0.4936	-0.84372	1.4951	-0.0592	0.0182	-0.0073	-0.0462	0.0165	0.9585
43.2111	22.8363	719.8342	56.7609	-269.4979	-41.8542	662.1386	-0.47501	2.8408	0.35085	1.0756	-0.10045	2.9184	-0.0592	0.0182	-0.0073	-0.0462	0.0165	0.9585
43.2239	27.0015	715.3185	56.0128	-268.3413	-39.3281	652.7848	0.096478	3.4074	-0.376	1.4542	0.37603	3.8603	-0.0592	0.0182	-0.0073	-0.0462	0.0165	0.9585
43.2367	30.5265	714.3934	55.5971	-268.3702	-37.1934	646.7754	0.35554	3.7196	-0.7672	1.6605	0.64586	4.3899	-0.0592	0.0182	-0.0073	-0.0462	0.0165	0.9585
43.2495	33.4812	716.6644	55.4827	-269.4675	-35.4388	643.8134	0.38901	3.7887	-0.91416	1.7188	0.76618	4.5527	-0.0592	0.0182	-0.0073	-0.0462	0.0165	0.9585
43.2623	35.9673	721.4233	55.6476	-271.3982	-34.0457	643.2944	0.27398	3.597	-0.89642	1.64	0.78449	4.3618	-0.0592	0.0182	-0.0073	-0.0462	0.0165	0.9585
43.2751	38.0795	727.822	56.006	-273.871	-32.9321	644.4595	0.0702	3.0985	-0.78669	1.4203	0.7495	3.8077	-0.0592	0.0182	-0.0073	-0.0462	0.0165	0.9585
43.2879	39.89	734.9874	56.5035	-276.5783	-32.052	646.5276	-0.16592	2.2206	-0.63559	1.0431	0.6912	2.8397	-0.0592	0.0182	-0.0073	-0.0462	0.0165	0.9585
43.3006	41.4544	742.1461	57.041	-279.244	-31.3207	648.8133	-0.39012	0.88436	-0.4825	0.48543	0.62661	1.3801	-0.0592	0.0182	-0.0073	-0.0462	0.0165	0.9585
43.3134	42.8018	748.6731	57.5542	-281.6399	-30.6851	650.7807	-0.54401	-0.96908	-0.34411	-0.26896	0.54827	-0.63718	-0.0592	0.0182	-0.0073	-0.0462	0.0165	0.9585
43.3262	43.9394	754.0999	57.9616	-283.5875	-30.0763	652.045	-0.55681	-3.3089	-0.23723	-1.2055	0.44598	-3.1808	-0.0592	0.0182	-0.0073	-0.0462	0.0165	0.9585
43.339	44.8517	758.0547	58.2379	-284.9401	-29.484	652.3271	-0.33886	-5.9684	-0.16602	-2.258	0.28837	-6.0753	-0.0592	0.0182	-0.0073	-0.0462	0.0165	0.9585
43.3518	45.5092	760.2405	58.3377	-285.5755	-28.887	651.4273	0.20852	-8.5258	-0.14448	-3.266	0.052378	-8.8747	-0.0592	0.0182	-0.0073	-0.0462	0.0165	0.9585
43.3646	45.8697	760.3614	58.2724	-285.3681	-28.3203	649.1548	1.1903	-10.2296	-0.18167	-3.9415	-0.28791	-10.7891	-0.0592	0.0182	-0.0073	-0.0462	0.0165	0.9585
43.3774	45.9192	758.1132	58.048	-284.188	-27.8038	645.2991	2.6974	-9.9063	-0.30258	-3.831	-0.73341	-10.5673	-0.0592	0.0182	-0.0073	-0.0462	0.0165	0.9585
43.3901	45.6697	753.2111	57.7031	-281.9141	-27.3723	639.6554	4.776	-5.9069	-0.53605	-2.2934	-1.2591	-6.4311	-0.0592	0.0182	-0.0073	-0.0462	0.0165	0.9585
43.4029	45.2031	745.4796	57.2473	-278.4731	-27.0067	632.0715	7.3655	3.8774	-0.91094	1.4933	-1.7982	3.9126	-0.0592	0.0182	-0.0073	-0.0462	0.0165	0.9585
43.4157	44.6607	734.8813	56.6758	-273.8554	-26.6506	622.4781	10.2215	21.8535	-1.446	8.4692	-2.2265	23.0843	-0.0592	0.0182	-0.0073	-0.0462	0.0165	0.9585
43.4285	44.2358	721.394	55.9397	-268.0727	-26.1911	610.7906	12.8143	50.3513	-2.1402	19.5493	-2.3325	53.6337	-0.0592	0.0182	-0.0073	-0.0462	0.0165	0.9585
43.4413	44.1129	704.8194	54.9659	-261.088	-25.4971	596.7454	14.1959	90.971	-2.9486	35.3683	-1.7903	97.3555	-0.0592	0.0182	-0.0073	-0.0462	0.0165	0.9585
43.4541	44.4154	684.709	53.642	-252.7873	-24.4273	579.851	12.8818	143.6796	-3.7215	55.9276	-0.19018	154.3185	-0.0592	0.0182	-0.0073	-0.0462	0.0165	0.9585
43.4669	45.1598	660.4156	51.8375	-242.996	-22.8598	559.4456	7.5833	205.929	-4.2777	80.2454	2.7561	221.8953	-0.0592	0.0182	-0.0073	-0.0462	0.0165	0.9585
43.4796	46.2241	631.2227	49.4403	-231.5162	-20.7323	534.8264	-1.4847	272.4448	-4.7179	106.236	7.0773	294.4881	-0.0592	0.0182	-0.0073	-0.0462	0.0165	0.9585
43.4924	47.3283	596.496	46.3948	-218.1696	-18.0849	505.403	-12.7917	335.6991	-5.8951	130.8858	13.0409	363.9535	-0.0592	0.0182	-0.0073	-0.0462	0.0165	0.9585
43.5052	48.0769	555.8958	42.8031	-202.8556	-15.136	470.8941	-24.4228	389.3409	-8.3699	151.6598	20.4313	423.2407	-0.0592	0.0182	-0.0073	-0.0462	0.0165	0.9585
43.518	48.0397	509.6464	38.8571	-185.6427	-12.1849	431.5514	-34.9908	431.3492	-11.9183	167.7431	28.4572	470.0093	-0.0592	0.0182	-0.0073	-0.0462	0.0165	0.9585
43.5308	46.8875	458.5498	34.8146	-166.7922	-9.5519	388.1306	-43.6781	463.0771	-16.1765	179.6897	36.4115	505.581	-0.0592	0.0182	-0.0073	-0.0462	0.0165	0.9585
43.5436	44.3942	403.9706	30.7964	-146.7648	-7.4085	341.847	-50.3046	487.6873	-20.4604	188.7918	43.5249	533.2407	-0.0592	0.0182	-0.0073	-0.0462	0.0165	0.9585
43.5564	40.4469	347.686	26.851	-126.1777	-5.838	294.2309	-54.9144	508.9558	-24.4585	196.5742	49.502	556.8936	-0.0592	0.0182	-0.0073	-0.0462	0.0165	0.9585
43.5691	35.0528	291.7624	22.9516	-105.758	-4.8218	247.0392	-57.6891	530.4814	-28.0313	204.4615	54.3069	580.2247	-0.0592	0.0182	-0.0073	-0.0462	0.0165	0.9585
43.5819	28.4086	238.3178	19.1336	-86.2629	-4.3282	202.0412	-58.9585	554.8092	-31.4284	213.4375	58.341	605.8433	-0.0592	0.0182	-0.0073	-0.0462	0.0165	0.9585
43.5947	20.9401	189.3207	15.4651	-68.4008	-4.2589	160.8662	-59.0972	582.9698	-34.9196	223.8824	62.0459	634.7871	-0.0592	0.0182	-0.0073	-0.0462	0.0165	0.9585
43.6075	13.2933	146.2235	12.121	-52.6983	-4.5134	124.6749	-58.5581	614.5098	-38.8367	235.5902	65.9231	666.6091	-0.0592	0.0182	-0.0073	-0.0462	0.0165	0.9585
43.6203	6.171	109.7501	9.2472	-39.4214	-4.9407	94.0098	-57.7023	647.9845	-43.2012	247.9832	70.1282	699.8274	-0.0592	0.0182	-0.0073	-0.0462	0.0165	0.9585
43.6331	0.13886	79.8822	6.9441	-28.5651	-5.4046	68.8209	-56.7998	681.5494	-47.9192	260.3394	74.6414	732.5907	-0.0592	0.0182	-0.0073	-0.0462	0.0165	0.9585
43.6459	-4.4353	56.0858	5.1674	-19.9394	-5.7321	48.6534	-55.9214	713.2724	-52.6624	271.9226	79.1413	762.9504	-0.0592	0.0182	-0.0073	-0.0462	0.0165	0.9585
43.6586	-7.4241	37.6155	3.8128	-13.2717	-5.7871	32.9239	-55.0607	741.3247	-57.0909	282.0469	83.2608	789.0994	-0.0592	0.0182	-0.0073	-0.0462	0.0165	0.9585
43.6714	-8.7773	23.6491	2.7644	-8.2599	-5.4616	20.958	-54.136	764.1008	-60.8433	290.1241	86.5955	809.4469	-0.0592	0.0182	-0.0073	-0.0462	0.0165	0.9585
43.6842	-8.6063	13.4013	1.9203	-4.6116	-4.7236	12.1214	-53.0185	780.4342	-63.712	295.7346	88.8837	822.8579	-0.0592	0.0182	-0.0073	-0.0462	0.0165	0.9585
43.697	-7.2857	6.2393	1.2291	-2.0886	-3.6826	5.8806	-51.5824	789.7248	-65.5979	298.6737	89.9811	828.7874	-0.0592	0.0182	-0.0073	-0.0462	0.0165	0.9585
43.7098	-5.5123	1.7191	0.69401	-0.51362	-2.5948	1.902	-49.7294	791.9948	-66.5417	298.9737	89.8971	827.31	-0.0592	0.0182	-0.0073	-0.0462	0.0165	0.9585
43.7226	-3.7275	-0.75584	0.33207	0.33383	-1.6458	-0.30503	-47.4103	788.0178	-66.6255	296.9467	88.7071	819.2556	-0.0592	0.0182	-0.0073	-0.0462	0.0165	0.9585
